<?xml version="1.0" encoding="utf-8"?>
<!-- Generator: Adobe Illustrator 27.5.0, SVG Export Plug-In . SVG Version: 6.00 Build 0)  -->
<svg version="1.1" id="Layer_1" xmlns="http://www.w3.org/2000/svg" xmlns:xlink="http://www.w3.org/1999/xlink" x="0px" y="0px"
	 viewBox="0 0 2599 1733" style="enable-background:new 0 0 2599 1733;" xml:space="preserve">
<g>
	<rect style="fill:transparent;" width="2598.076" height="1732.051"/>
	<g>
		<g style="opacity:0.6;">
			<g>
				<polygon style="fill:rgba(0, 123, 255,0.5);" points="701.315,525.641 429.884,388.292 432.156,383.805 699.183,518.922 868.068,200.411
					872.513,202.772 				"/>
			</g>
			<g>
				<path style="fill:rgba(0, 123, 255,0.5);" d="M760.916,974.446l-1.292-0.57l-1.853,0.37l-0.167-1.262L475.491,848.262l-245.89-81.954
					l1.592-4.781l246.112,82.042l279.519,123.564l-59.621-448.658l278.253,102.439l-1.586,2.608L765.035,967.656l372.892-74.718
					l0.987,4.933L761.491,973.5L760.916,974.446z M703.294,526.087l58.171,437.752l206.516-340.317L703.294,526.087z"/>
			</g>
			<g>

					<rect x="124.492" y="1017.959" transform="matrix(0.6048 -0.7964 0.7964 0.6048 -676.8177 677.0203)" style="fill:rgba(0, 123, 255,0.5);" width="438.533" height="5.03"/>
			</g>
			<g>

					<rect x="1234.536" y="302.562" transform="matrix(0.2135 -0.9769 0.9769 0.2135 619.3416 1493.189)" style="fill:rgba(0, 123, 255,0.5);" width="5.037" height="118.75"/>
			</g>
			<g>

					<rect x="1545.893" y="373.18" transform="matrix(0.9965 -0.084 0.084 0.9965 -25.608 142.7265)" style="fill:rgba(0, 123, 255,0.5);" width="275.025" height="5.034"/>
			</g>
			<g>
				<polygon style="fill:rgba(0, 123, 255,0.5);" points="1290.042,842.601 1286.53,838.995 1475.191,655.166 1476.621,655.612 1783.577,750.974
					2232.221,770.356 2232.004,775.383 1782.708,755.978 1782.396,755.878 1476.56,660.863 				"/>
			</g>
			<g>

					<rect x="2306.338" y="398.375" transform="matrix(0.2681 -0.9634 0.9634 0.2681 1190.4791 2603.825)" style="fill:rgba(0, 123, 255,0.5);" width="5.036" height="240.13"/>
			</g>
			<g>

					<rect x="1846.435" y="871.387" transform="matrix(0.2163 -0.9763 0.9763 0.2163 453.331 2604.302)" style="fill:rgba(0, 123, 255,0.5);" width="5.029" height="296.745"/>
			</g>
			<g>
				<polygon style="fill:rgba(0, 123, 255,0.5);" points="1638.255,1355.13 1562.886,1216.271 1473.391,658.414 1478.36,657.615 1567.787,1215.05
					1642.678,1352.722 				"/>
			</g>
			<g>

					<rect x="1076.109" y="1061.216" transform="matrix(0.4597 -0.8881 0.8881 0.4597 -316.9521 1606.5081)" style="fill:rgba(0, 123, 255,0.5);" width="171.353" height="5.033"/>
			</g>
			<g>

					<rect x="943.578" y="1159.411" transform="matrix(0.4099 -0.9121 0.9121 0.4099 -697.884 1675.6807)" style="fill:rgba(0, 123, 255,0.5);" width="5.034" height="435.568"/>
			</g>
		</g>
		<g>
			<path style="fill:rgba(0, 123, 255,0.5);" d="M597.82,1342.339L597.82,1342.339c-72.497,0-131.266-58.77-131.266-131.266v-0.001
				c0-72.496,58.77-131.265,131.266-131.265l0,0c72.496,0,131.266,58.769,131.266,131.265v0.001
				C729.086,1283.569,670.316,1342.339,597.82,1342.339z"/>
			<g>
				<path style="fill:rgba(0, 123, 255,0.5);" d="M597.822,1382.651c-94.613,0-171.586-76.967-171.586-171.577c0-1.404,0.018-2.813,0.05-4.211
					c0.044-1.855,1.733-3.4,3.436-3.277c1.853,0.042,3.319,1.58,3.278,3.43c-0.032,1.351-0.05,2.702-0.05,4.058
					c0,90.91,73.96,164.87,164.87,164.87c5.556-0.006,11.156-0.287,16.645-0.84c1.87-0.171,3.489,1.162,3.673,3.007
					c0.185,1.844-1.16,3.488-3.004,3.676C609.424,1382.357,603.601,1382.645,597.822,1382.651z M729.471,1319.156
					c-0.731,0-1.471-0.235-2.087-0.728c-1.451-1.157-1.689-3.265-0.535-4.716c23.448-29.424,35.841-64.915,35.841-102.638
					c0-52.088-23.847-100.025-65.432-131.516c-1.477-1.122-1.768-3.225-0.649-4.704c1.122-1.475,3.227-1.768,4.701-0.652
					c43.273,32.772,68.093,82.664,68.093,136.872c0,39.256-12.9,76.192-37.303,106.821
					C731.435,1318.728,730.457,1319.156,729.471,1319.156z M483.329,1091.168c-0.898,0-1.797-0.358-2.458-1.069
					c-1.262-1.357-1.184-3.483,0.173-4.746c8.361-7.77,17.517-14.718,27.21-20.655c1.574-0.963,3.645-0.47,4.616,1.104
					c0.966,1.585,0.47,3.647-1.11,4.616c-9.315,5.709-18.113,12.387-26.147,19.857
					C484.968,1090.875,484.148,1091.168,483.329,1091.168z"/>
			</g>
			<g>
				<g>
					<path style="fill:rgba(0, 123, 255,0.5);" d="M654.915,1270.04c-3.313,0-6-2.684-6-5.996c0-27.715-22.55-50.268-50.265-50.268
						s-50.262,22.553-50.262,50.268c0,3.312-2.687,5.996-6,5.996c-3.313,0-5.999-2.684-5.999-5.996
						c0-34.334,27.929-62.261,62.261-62.261s62.264,27.927,62.264,62.261C660.914,1267.355,658.227,1270.04,654.915,1270.04z"/>
				</g>
				<g>
					<path style="fill:rgba(0, 123, 255,0.5);" d="M598.65,1213.776c-20.579,0-37.321-16.738-37.321-37.318c0-20.579,16.741-37.324,37.321-37.324
						c20.58,0,37.324,16.745,37.324,37.324C635.974,1197.037,619.23,1213.776,598.65,1213.776z M598.65,1151.127
						c-13.964,0-25.322,11.364-25.322,25.331c0,13.96,11.358,25.325,25.322,25.325c13.963,0,25.325-11.364,25.325-25.325
						C623.975,1162.491,612.614,1151.127,598.65,1151.127z"/>
				</g>
			</g>
		</g>
		<g>
			<path style="fill:rgba(0, 123, 255,0.5)" d="M1420.405,487.833L1420.405,487.833c-55.564,0-100.608-45.043-100.608-100.607v-0.001
				c0-55.564,45.043-100.607,100.607-100.607h0.001c55.564,0,100.607,45.043,100.607,100.607v0.001
				C1521.012,442.79,1475.969,487.833,1420.405,487.833z"/>
			<g>
				<path style="fill:rgba(0, 123, 255,0.5)" d="M1420.404,516.555c-71.311,0-129.329-58.015-129.329-129.326c0-24.379,6.819-48.13,19.719-68.68
					c0.987-1.569,3.06-2.038,4.628-1.057c1.568,0.987,2.044,3.054,1.057,4.628c-12.228,19.481-18.691,41.993-18.691,65.103
					c0,67.611,55.005,122.625,122.616,122.625c1.853,0,3.356,1.497,3.356,3.353C1423.761,515.057,1422.257,516.555,1420.404,516.555
					z M1500.646,487.688c-0.966,0-1.927-0.411-2.59-1.215c-1.181-1.427-0.981-3.542,0.449-4.722
					c16.903-13.978,29.771-32.22,37.215-52.746c0.628-1.739,2.546-2.661,4.299-2.009c1.742,0.629,2.643,2.555,2.009,4.299
					c-7.847,21.648-21.419,40.888-39.247,55.624C1502.155,487.436,1501.398,487.688,1500.646,487.688z M1460.089,270.994
					c-0.349,0-0.705-0.059-1.057-0.176c-10.31-3.418-21.076-5.445-31.991-6.026c-1.85-0.1-3.272-1.68-3.172-3.536
					c0.097-1.85,1.742-3.124,3.53-3.171c11.514,0.616,22.867,2.76,33.747,6.366c1.759,0.582,2.711,2.478,2.129,4.241
					C1462.808,270.101,1461.495,270.994,1460.089,270.994z"/>
			</g>
			<g>
				<g>
					<path style="fill:rgba(0, 123, 255,0.5);" d="M1464.165,432.423c-2.54,0-4.599-2.062-4.599-4.599c0-21.243-17.281-38.522-38.525-38.522
						c-21.24,0-38.521,17.279-38.521,38.522c0,2.537-2.059,4.599-4.599,4.599s-4.598-2.062-4.598-4.599
						c0-26.312,21.407-47.719,47.719-47.719c26.315,0,47.722,21.408,47.722,47.719
						C1468.763,430.361,1466.705,432.423,1464.165,432.423z"/>
				</g>
				<g>
					<path style="fill:rgba(0, 123, 255,0.5);" d="M1421.041,389.302c-15.772,0-28.605-12.832-28.605-28.608c0-15.775,12.833-28.608,28.605-28.608
						c15.775,0,28.608,12.833,28.608,28.608C1449.65,376.47,1436.817,389.302,1421.041,389.302z M1421.041,341.284
						c-10.701,0-19.407,8.709-19.407,19.41c0,10.701,8.707,19.41,19.407,19.41c10.704,0,19.411-8.71,19.411-19.41
						C1440.452,349.993,1431.745,341.284,1421.041,341.284z"/>
				</g>
			</g>
		</g>
		<g>
			<path style="fill:rgba(0, 123, 255,0.5);" d="M1710.91,1563.941L1710.91,1563.941c-55.564,0-100.607-45.043-100.607-100.608l0,0
				c0-55.564,45.043-100.607,100.607-100.607h0.001c55.563,0,100.607,45.043,100.607,100.607l0,0
				C1811.517,1518.897,1766.474,1563.941,1710.91,1563.941z"/>
			<g>
				<path style="fill:rgba(0, 123, 255,0.5);" d="M1781.674,1575.917c-1.098,0-2.176-0.535-2.819-1.527c-1.007-1.556-0.563-3.635,0.99-4.64
					c7.418-4.81,14.383-10.46,20.708-16.785c1.427-1.422,2.804-2.866,4.141-4.334c1.248-1.369,3.374-1.457,4.74-0.223
					c1.371,1.251,1.471,3.371,0.223,4.745c-1.41,1.55-2.863,3.072-4.358,4.563c-6.657,6.655-13.993,12.598-21.801,17.66
					C1782.933,1575.747,1782.3,1575.917,1781.674,1575.917z M1603.381,1539.997c-1.072,0-2.123-0.51-2.775-1.462
					c-15.161-22.189-23.178-48.189-23.178-75.194c0-35.656,13.884-69.173,39.091-94.387c25.216-25.219,58.737-39.103,94.38-39.103
					c35.65,0,69.171,13.879,94.387,39.091c15.567,15.564,27.122,34.857,33.421,55.783c0.534,1.78-0.47,3.648-2.247,4.182
					c-1.759,0.564-3.647-0.47-4.179-2.243c-5.982-19.875-16.958-38.193-31.741-52.975c-23.947-23.939-55.783-37.13-89.641-37.13
					c-33.853,0-65.685,13.191-89.635,37.142c-23.939,23.944-37.124,55.777-37.124,89.641c0,25.648,7.608,50.338,22.009,71.412
					c1.046,1.527,0.652,3.617-0.878,4.663C1604.693,1539.809,1604.033,1539.997,1603.381,1539.997z"/>
			</g>
			<g>
				<g>
					<path style="fill:rgba(0, 123, 255,0.5);" d="M1754.669,1508.529c-2.54,0-4.598-2.062-4.598-4.598c0-21.243-17.281-38.522-38.525-38.522
						c-21.24,0-38.521,17.278-38.521,38.522c0,2.537-2.059,4.598-4.599,4.598c-2.54,0-4.598-2.062-4.598-4.598
						c0-26.311,21.407-47.719,47.719-47.719c26.314,0,47.722,21.408,47.722,47.719
						C1759.268,1506.467,1757.209,1508.529,1754.669,1508.529z"/>
				</g>
				<g>
					<path style="fill:rgba(0, 123, 255,0.5);" d="M1711.546,1465.409c-15.772,0-28.605-12.833-28.605-28.608
						c0-15.775,12.833-28.608,28.605-28.608c15.775,0,28.608,12.833,28.608,28.608
						C1740.154,1452.576,1727.321,1465.409,1711.546,1465.409z M1711.546,1417.39c-10.701,0-19.407,8.71-19.407,19.41
						s8.706,19.411,19.407,19.411c10.704,0,19.411-8.71,19.411-19.411S1722.25,1417.39,1711.546,1417.39z"/>
				</g>
			</g>
		</g>
		<g>
			<path style="fill:rgba(0, 123, 255,0.5);" d="M430.131,529.816L430.131,529.816c-77.457,0-140.248-62.791-140.248-140.247v-0.001
				c0-77.456,62.791-140.247,140.248-140.247l0,0c77.457,0,140.247,62.791,140.247,140.247v0.001
				C570.378,467.025,507.588,529.816,430.131,529.816z"/>
			<g>
				<path style="fill:rgba(0, 123, 255,0.5);" d="M430.136,570.564c-95.676,0-175.036-74.736-180.678-170.144c-0.109-1.85,1.301-3.442,3.154-3.548
					c1.826-0.058,3.436,1.304,3.548,3.148c5.43,91.867,81.847,163.836,173.97,163.836c2.974-0.006,5.938-0.082,8.886-0.235
					c1.862-0.059,3.427,1.333,3.521,3.183c0.094,1.85-1.33,3.43-3.18,3.524C436.303,570.482,433.228,570.558,430.136,570.564z
					 M293.736,279.105c-0.758,0-1.521-0.253-2.15-0.775c-1.421-1.193-1.612-3.307-0.423-4.728
					c7.285-8.722,15.44-16.809,24.241-24.039c1.43-1.175,3.548-0.957,4.722,0.464c1.177,1.433,0.969,3.548-0.464,4.728
					c-8.474,6.959-16.333,14.747-23.348,23.146C295.651,278.7,294.696,279.105,293.736,279.105z M560.546,272.304
					c-0.901,0-1.803-0.358-2.464-1.075c-15.041-16.257-32.757-29.336-52.655-38.886c-1.671-0.799-2.376-2.807-1.574-4.475
					c0.802-1.674,2.807-2.373,4.475-1.575c20.665,9.914,39.063,23.499,54.682,40.378c1.26,1.363,1.175,3.483-0.185,4.74
					C562.179,272.01,561.362,272.304,560.546,272.304z"/>
			</g>
			<g>
				<g>
					<path style="fill:rgba(0, 123, 255,0.5);" d="M491.131,452.567c-3.539,0-6.41-2.866-6.41-6.408c0-29.612-24.089-53.703-53.701-53.703
						c-29.613,0-53.704,24.091-53.704,53.703c0,3.542-2.872,6.408-6.41,6.408c-3.539,0-6.411-2.866-6.411-6.408
						c0-36.677,29.844-66.518,66.525-66.518c36.68,0,66.522,29.841,66.522,66.518C497.542,449.701,494.67,452.567,491.131,452.567z"
						/>
				</g>
				<g>
					<path style="fill:rgba(0, 123, 255,0.5);" d="M431.02,392.456c-21.989,0-39.879-17.884-39.879-39.873c0-21.989,17.889-39.879,39.879-39.879
						c21.986,0,39.875,17.889,39.875,39.879C470.895,374.572,453.006,392.456,431.02,392.456z M431.02,325.52
						c-14.921,0-27.058,12.139-27.058,27.063c0,14.917,12.137,27.057,27.058,27.057c14.917,0,27.054-12.14,27.054-27.057
						C458.074,337.66,445.938,325.52,431.02,325.52z"/>
				</g>
			</g>
		</g>
		<g>
			<path style="fill:rgba(0, 123, 255,0.5)" d="M2097.372,530.75L2097.372,530.75c-41.198,0-74.596-33.397-74.596-74.596l0,0
				c0-41.197,33.397-74.595,74.595-74.595h0.001c41.197,0,74.595,33.397,74.595,74.595l0,0
				C2171.967,497.353,2138.57,530.75,2097.372,530.75z"/>
			<g>
				<path style="fill:rgba(0, 123, 255,0.5)" d="M2097.404,559.94c-12.915,0-25.554-2.355-37.564-7.001c-1.73-0.669-2.59-2.613-1.92-4.34
					c0.667-1.732,2.619-2.584,4.34-1.92c11.238,4.346,23.06,6.555,35.145,6.555c23.971,0,47.002-8.834,64.851-24.867
					c20.462-18.377,32.196-44.712,32.196-72.239c0-23.968-8.83-47.003-24.866-64.851c-1.24-1.38-1.125-3.501,0.253-4.74
					c1.38-1.24,3.497-1.134,4.739,0.253c17.147,19.087,26.588,43.707,26.588,69.338c0,29.43-12.548,57.58-34.422,77.231
					C2147.66,550.502,2123.034,559.94,2097.404,559.94z M1997.86,445.948c-0.15,0-0.302-0.012-0.455-0.035
					c-1.835-0.247-3.122-1.938-2.872-3.776c1.562-11.529,5.016-22.617,10.258-32.954c0.837-1.656,2.857-2.314,4.51-1.48
					c1.653,0.84,2.314,2.86,1.474,4.511c-4.901,9.673-8.128,20.039-9.594,30.828C2000.955,444.727,1999.514,445.948,1997.86,445.948
					z"/>
			</g>
			<g>
				<g>
					<path style="fill:rgba(0, 123, 255,0.5);" d="M2129.817,489.662c-1.882,0-3.409-1.521-3.409-3.406c0-15.751-12.813-28.567-28.564-28.567
						c-15.752,0-28.564,12.815-28.564,28.567c0,1.885-1.527,3.406-3.409,3.406c-1.882,0-3.409-1.521-3.409-3.406
						c0-19.51,15.872-35.379,35.382-35.379c19.51,0,35.383,15.869,35.383,35.379
						C2133.227,488.141,2131.699,489.662,2129.817,489.662z"/>
				</g>
				<g>
					<path style="fill:rgba(0, 123, 255,0.5);" d="M2097.844,457.688c-11.697,0-21.211-9.514-21.211-21.207c0-11.694,9.514-21.208,21.211-21.208
						c11.696,0,21.21,9.514,21.21,21.208C2119.055,448.174,2109.541,457.688,2097.844,457.688z M2097.844,422.086
						c-7.935,0-14.392,6.46-14.392,14.395c0,7.934,6.457,14.395,14.392,14.395c7.935,0,14.392-6.46,14.392-14.395
						C2112.236,428.546,2105.779,422.086,2097.844,422.086z"/>
				</g>
			</g>
		</g>
		<g>
			<path style="fill:rgba(0, 123, 255,0.5)" d="M1237.591,970.004L1237.591,970.004c-41.198,0-74.595-33.398-74.595-74.596l0,0
				c0-41.198,33.397-74.595,74.595-74.595l0,0c41.198,0,74.595,33.397,74.595,74.595l0,0
				C1312.186,936.606,1278.789,970.004,1237.591,970.004z"/>
			<g>
				<path style="fill:rgba(0, 123, 255,0.5)" d="M1237.592,997.932c-56.535,0-102.527-45.992-102.527-102.527
					c0-39.708,23.266-76.204,59.271-92.983c1.686-0.769,3.679-0.047,4.461,1.627c0.784,1.68,0.056,3.677-1.624,4.458
					c-33.653,15.682-55.395,49.792-55.395,86.899c0,52.834,42.982,95.82,95.814,95.82c1.853,0,3.356,1.497,3.356,3.353
					C1240.948,996.435,1239.445,997.932,1237.592,997.932z M1331.917,868.049c-1.416,0-2.731-0.905-3.192-2.32
					c-3.353-10.302-8.41-19.91-15.029-28.543c-1.128-1.474-0.849-3.583,0.622-4.71c1.472-1.122,3.58-0.84,4.705,0.622
					c7.083,9.244,12.495,19.528,16.086,30.552c0.573,1.762-0.391,3.659-2.153,4.228
					C1332.61,867.99,1332.26,868.049,1331.917,868.049z"/>
			</g>
			<g>
				<g>
					<path style="fill:rgba(0, 123, 255,0.5);" d="M1270.035,928.918c-1.882,0-3.409-1.521-3.409-3.406c0-15.751-12.812-28.567-28.561-28.567
						c-15.751,0-28.564,12.815-28.564,28.567c0,1.885-1.527,3.406-3.409,3.406s-3.409-1.521-3.409-3.406
						c0-19.51,15.872-35.38,35.382-35.38c19.508,0,35.38,15.869,35.38,35.38C1273.444,927.397,1271.917,928.918,1270.035,928.918z"
						/>
				</g>
				<g>
					<path style="fill:rgba(0, 123, 255,0.5);" d="M1238.064,896.944c-11.696,0-21.21-9.514-21.21-21.207c0-11.694,9.514-21.208,21.21-21.208
						c11.694,0,21.208,9.514,21.208,21.208C1259.272,887.43,1249.758,896.944,1238.064,896.944z M1238.064,861.342
						c-7.934,0-14.392,6.46-14.392,14.395c0,7.934,6.457,14.395,14.392,14.395c7.935,0,14.389-6.46,14.389-14.395
						C1252.454,867.802,1246,861.342,1238.064,861.342z"/>
				</g>
			</g>
		</g>
		<g>
			<path style="fill:rgba(0, 123, 255,0.5)" d="M2196.032,1255.647L2196.032,1255.647c-95.184,0-172.346-77.162-172.346-172.346l0,0
				c0-95.184,77.161-172.346,172.346-172.346l0,0c95.184,0,172.346,77.162,172.346,172.346l0,0
				C2368.377,1178.486,2291.216,1255.647,2196.032,1255.647z"/>
			<g>
				<path style="fill:rgba(0, 123, 255,0.5)" d="M2196.031,1291.101c-88.757,0-167.753-56.358-196.573-140.244
					c-0.569-1.662,0.314-3.465,1.97-4.035c1.659-0.563,3.462,0.312,4.032,1.968c27.938,81.325,104.524,135.968,190.571,135.968
					c26.796,0,52.823-5.18,77.358-15.388c1.615-0.658,3.474,0.094,4.15,1.709c0.672,1.621-0.094,3.477-1.712,4.152
					C2250.513,1285.762,2223.667,1291.101,2196.031,1291.101z M2394.504,1136.509c-0.256,0-0.517-0.03-0.775-0.094
					c-1.7-0.429-2.731-2.15-2.305-3.853c2.525-10.044,4.284-20.392,5.227-30.746c0.159-1.738,1.721-2.966,3.448-2.872
					c1.744,0.159,3.031,1.703,2.872,3.448c-0.972,10.683-2.787,21.354-5.392,31.721
					C2397.217,1135.551,2395.922,1136.509,2394.504,1136.509z M1999.828,1028.168c-0.297,0-0.602-0.042-0.902-0.129
					c-1.68-0.499-2.637-2.267-2.141-3.947c3.049-10.272,6.931-20.385,11.544-30.052c0.752-1.586,2.649-2.238,4.229-1.503
					c1.583,0.757,2.252,2.649,1.497,4.228c-4.469,9.379-8.231,19.176-11.185,29.136
					C2002.459,1027.275,2001.196,1028.168,1999.828,1028.168z M2372.838,983.385c-1.09,0-2.153-0.564-2.743-1.569
					c-36.028-61.668-102.727-99.972-174.064-99.972c-13.279,0.006-26.543,1.304-39.429,3.859c-1.736,0.358-3.389-0.787-3.729-2.496
					c-0.341-1.721,0.778-3.388,2.496-3.729c13.288-2.631,26.969-3.97,40.662-3.976c73.584,0,142.379,39.508,179.544,103.108
					c0.884,1.516,0.373,3.459-1.139,4.34C2373.933,983.244,2373.381,983.385,2372.838,983.385z"/>
			</g>
			<g>
				<g>
					<path style="fill:rgba(0, 123, 255,0.5);" d="M2270.995,1160.724c-4.349,0-7.876-3.524-7.876-7.876c0-36.39-29.606-65.996-65.996-65.996
						c-36.39,0-65.994,29.606-65.994,65.996c0,4.352-3.527,7.876-7.875,7.876c-4.349,0-7.876-3.524-7.876-7.876
						c0-45.076,36.671-81.748,81.745-81.748c45.076,0,81.747,36.672,81.747,81.748
						C2278.871,1157.199,2275.344,1160.724,2270.995,1160.724z"/>
				</g>
				<g>
					<path style="fill:rgba(0, 123, 255,0.5);" d="M2197.123,1086.852c-27.019,0-49.003-21.983-49.003-49c0-27.022,21.983-49.005,49.003-49.005
						c27.019,0,49.002,21.983,49.002,49.005C2246.125,1064.868,2224.142,1086.852,2197.123,1086.852z M2197.123,1004.599
						c-18.333,0-33.25,14.918-33.25,33.254c0,18.33,14.917,33.247,33.25,33.247c18.333,0,33.25-14.917,33.25-33.247
						C2230.374,1019.516,2215.456,1004.599,2197.123,1004.599z"/>
				</g>
			</g>
		</g>
		<path style="fill:rgba(0, 123, 255,0.5);" d="M986.634,622.219c0,8.237-6.678,14.915-14.915,14.915c-8.238,0-14.916-6.678-14.916-14.915
			c0-8.238,6.678-14.916,14.916-14.916C979.956,607.303,986.634,613.981,986.634,622.219z"/>

			<ellipse transform="matrix(0.2898 -0.9571 0.9571 0.2898 -389.8751 1417.103)" style="fill:rrgba(0, 123, 255,0.5);" cx="759.912" cy="971.251" rx="44.748" ry="44.748"/>
		<path style="fill:rgba(0, 123, 255,0.5);" d="M1592.22,1215.871c0,14.828-12.021,26.849-26.849,26.849c-14.828,0-26.849-12.021-26.849-26.849
			c0-14.828,12.021-26.849,26.849-26.849C1580.199,1189.023,1592.22,1201.044,1592.22,1215.871z"/>

			<ellipse transform="matrix(0.2106 -0.9776 0.9776 0.2106 671.0958 2337.9917)" style="fill:rgba(0, 123, 255,0.5);" cx="1783.143" cy="753.479" rx="44.748" ry="44.748"/>
		<path style="fill:rgba(0, 123, 255,0.5);" d="M2448.393,550.623c0,13.18-10.684,23.865-23.865,23.865c-13.181,0-23.865-10.685-23.865-23.865
			c0-13.181,10.685-23.866,23.865-23.866C2437.708,526.757,2448.393,537.442,2448.393,550.623z"/>
		<path style="fill:rgba(0, 123, 255,0.5);" d="M1171.592,1466.459c0,14.828-12.021,26.849-26.849,26.849c-14.828,0-26.849-12.02-26.849-26.849
			s12.021-26.849,26.849-26.849C1159.571,1439.61,1171.592,1451.631,1171.592,1466.459z"/>
		<path style="fill:rgba(0, 123, 255,0.5);" d="M261.721,763.92c0,17.299-14.024,31.323-31.324,31.323c-17.299,0-31.324-14.024-31.324-31.323
			s14.024-31.324,31.324-31.324C247.697,732.596,261.721,746.62,261.721,763.92z"/>
		<path style="fill:rgba(0, 123, 255,0.5);" d="M903.105,201.59c0,18.123-14.692,32.814-32.815,32.814s-32.815-14.692-32.815-32.814
			c0-18.123,14.692-32.815,32.815-32.815S903.105,183.467,903.105,201.59z"/>
		<g>
			<path style="fill:rgba(0, 123, 255,0.5);" d="M1204.406,349.258c0,14.004-11.353,25.356-25.357,25.356c-14.004,0-25.357-11.353-25.357-25.356
				c0-14.004,11.353-25.357,25.357-25.357C1193.053,323.901,1204.406,335.254,1204.406,349.258z"/>
			<path style="fill:rgba(0, 123, 255,0.5);" d="M1179.048,377.967c-15.834,0-28.714-12.88-28.714-28.708c0-15.834,12.88-28.714,28.714-28.714
				c15.834,0,28.714,12.88,28.714,28.714C1207.763,365.087,1194.883,377.967,1179.048,377.967z M1179.048,327.253
				c-12.13,0-22.001,9.873-22.001,22.006c0,12.128,9.87,22.001,22.001,22.001c12.131,0,22.001-9.873,22.001-22.001
				C1201.049,337.126,1191.179,327.253,1179.048,327.253z"/>
		</g>
		<g>
			<path style="fill:rgba(0, 123, 255,0.5);" d="M509.325,845.957c0,18.123-14.692,32.815-32.815,32.815c-18.123,0-32.815-14.692-32.815-32.815
				c0-18.123,14.692-32.815,32.815-32.815C494.633,813.143,509.325,827.834,509.325,845.957z"/>
			<path style="fill:rgba(0, 123, 255,0.5);" d="M476.51,882.127c-19.945,0-36.172-16.222-36.172-36.167c0-19.945,16.227-36.173,36.172-36.173
				c19.945,0,36.173,16.228,36.173,36.173C512.683,865.905,496.455,882.127,476.51,882.127z M476.51,816.495
				c-16.245,0-29.459,13.22-29.459,29.465c0,16.245,13.215,29.459,29.459,29.459c16.245,0,29.46-13.214,29.46-29.459
				C505.97,829.715,492.755,816.495,476.51,816.495z"/>
		</g>
		<g>
			<circle style="fill:rgba(0, 123, 255,0.5);" cx="1122.369" cy="1139.801" r="28.34"/>
			<path style="fill:rgba(0, 123, 255,0.5);" d="M1122.37,1171.495c-17.478,0-31.697-14.213-31.697-31.691c0-17.479,14.219-31.698,31.697-31.698
				c17.476,0,31.694,14.219,31.694,31.698C1154.064,1157.282,1139.846,1171.495,1122.37,1171.495z M1122.37,1114.813
				c-13.775,0-24.984,11.211-24.984,24.99c0,13.772,11.209,24.984,24.984,24.984c13.776,0,24.981-11.212,24.981-24.984
				C1147.351,1126.025,1136.146,1114.813,1122.37,1114.813z"/>
		</g>
		<g>
			<path style="fill:rgba(0, 123, 255,0.5);" d="M1732.43,987.658c0,15.652-12.688,28.341-28.341,28.341c-15.652,0-28.34-12.689-28.34-28.341
				c0-15.652,12.688-28.34,28.34-28.34C1719.741,959.318,1732.43,972.007,1732.43,987.658z"/>
			<path style="fill:rgba(0, 123, 255,0.5);" d="M1704.09,1019.352c-17.479,0-31.697-14.212-31.697-31.691c0-17.478,14.218-31.697,31.697-31.697
				c17.478,0,31.697,14.219,31.697,31.697C1735.787,1005.139,1721.568,1019.352,1704.09,1019.352z M1704.09,962.67
				c-13.775,0-24.984,11.212-24.984,24.99c0,13.772,11.209,24.984,24.984,24.984c13.775,0,24.984-11.212,24.984-24.984
				C1729.074,973.882,1717.865,962.67,1704.09,962.67z"/>
		</g>
		<g>
			<path style="fill:rgba(0, 123, 255,0.5);" d="M1851.757,364.173c0,17.299-14.024,31.324-31.323,31.324c-17.299,0-31.324-14.024-31.324-31.324
				s14.024-31.323,31.324-31.323C1837.733,332.85,1851.757,346.874,1851.757,364.173z"/>
			<path style="fill:rgba(0, 123, 255,0.5);" d="M1820.433,398.852c-19.123,0-34.681-15.558-34.681-34.681s15.558-34.675,34.681-34.675
				s34.681,15.552,34.681,34.675S1839.556,398.852,1820.433,398.852z M1820.433,336.203c-15.423,0-27.968,12.545-27.968,27.968
				c0,15.423,12.545,27.974,27.968,27.974s27.968-12.551,27.968-27.974C1848.401,348.748,1835.857,336.203,1820.433,336.203z"/>
		</g>
		<g>
			<path style="fill:rgba(0, 123, 255,0.5);" d="M1496.758,658.017c0,11.533-9.349,20.882-20.883,20.882c-11.533,0-20.882-9.349-20.882-20.882
				c0-11.533,9.349-20.883,20.882-20.883C1487.409,637.134,1496.758,646.484,1496.758,658.017z"/>
			<path style="fill:rgba(0, 123, 255,0.5);" d="M1475.876,682.253c-13.365,0-24.239-10.871-24.239-24.238c0-13.361,10.874-24.233,24.239-24.233
				c13.364,0,24.239,10.871,24.239,24.233C1500.114,671.382,1489.24,682.253,1475.876,682.253z M1475.876,640.489
				c-9.664,0-17.526,7.865-17.526,17.526c0,9.667,7.862,17.531,17.526,17.531c9.664,0,17.526-7.864,17.526-17.531
				C1493.401,648.354,1485.54,640.489,1475.876,640.489z"/>
		</g>
		<g>
			<path style="fill:rgba(0, 123, 255,0.5);" d="M2260.453,772.869c0,15.652-12.688,28.34-28.34,28.34c-15.652,0-28.341-12.688-28.341-28.34
				c0-15.652,12.688-28.34,28.341-28.34C2247.764,744.529,2260.453,757.217,2260.453,772.869z"/>
			<path style="fill:rgba(0, 123, 255,0.5);" d="M2232.112,804.561c-17.478,0-31.697-14.213-31.697-31.691c0-17.479,14.219-31.692,31.697-31.692
				c17.479,0,31.697,14.213,31.697,31.692C2263.809,790.347,2249.591,804.561,2232.112,804.561z M2232.112,747.885
				c-13.775,0-24.984,11.211-24.984,24.984c0,13.772,11.209,24.984,24.984,24.984c13.776,0,24.984-11.212,24.984-24.984
				C2257.096,759.096,2245.888,747.885,2232.112,747.885z"/>
		</g>
		<g>
			<path style="fill:rgba(0, 123, 255,0.5);" d="M240.839,1194.989c0,16.476-13.356,29.832-29.832,29.832s-29.832-13.357-29.832-29.832
				s13.357-29.832,29.832-29.832S240.839,1178.514,240.839,1194.989z"/>
			<path style="fill:rgba(0, 123, 255,0.5);" d="M211.007,1228.176c-18.3,0-33.189-14.888-33.189-33.189c0-18.3,14.888-33.183,33.189-33.183
				c18.301,0,33.189,14.882,33.189,33.183C244.196,1213.288,229.308,1228.176,211.007,1228.176z M211.007,1168.511
				c-14.6,0-26.476,11.881-26.476,26.476c0,14.601,11.875,26.482,26.476,26.482c14.601,0,26.476-11.881,26.476-26.482
				C237.483,1180.393,225.608,1168.511,211.007,1168.511z"/>
		</g>
		<g>
			<path style="fill:rgba(0, 123, 255,0.5);" d="M719.639,522.282c0,10.709-8.681,19.391-19.391,19.391c-10.709,0-19.391-8.682-19.391-19.391
				c0-10.709,8.682-19.391,19.391-19.391C710.958,502.891,719.639,511.573,719.639,522.282z"/>
			<path style="fill:rgba(0, 123, 255,0.5);" d="M700.25,545.028c-12.542,0-22.747-10.202-22.747-22.746c0-12.539,10.205-22.741,22.747-22.741
				c12.542,0,22.746,10.202,22.746,22.741C722.996,534.826,712.791,545.028,700.25,545.028z M700.25,506.248
				c-8.843,0-16.034,7.194-16.034,16.034c0,8.845,7.192,16.039,16.034,16.039c8.842,0,16.034-7.195,16.034-16.039
				C716.283,513.442,709.091,506.248,700.25,506.248z"/>
		</g>
	</g>
</g>
</svg>
